<svg width="65" height="13" viewBox="0 0 65 13" fill="none" xmlns="http://www.w3.org/2000/svg">
<path d="M1.29841e-05 1.01162L1.01246 0.000127699L6.527 5.51276C6.61589 5.60109 6.68643 5.70613 6.73457 5.82183C6.78271 5.93753 6.8075 6.06161 6.8075 6.18693C6.8075 6.31224 6.78271 6.43632 6.73457 6.55202C6.68643 6.66772 6.61589 6.77276 6.527 6.86109L1.01246 12.3766L0.000967152 11.3651L5.17675 6.18836L1.29841e-05 1.01162Z" fill="#12381A"/>
<path d="M28.8369 1.01162L29.8494 0.000127699L35.3639 5.51276C35.4528 5.60109 35.5233 5.70613 35.5715 5.82183C35.6196 5.93753 35.6444 6.06161 35.6444 6.18693C35.6444 6.31224 35.6196 6.43632 35.5715 6.55202C35.5233 6.66772 35.4528 6.77276 35.3639 6.86109L29.8494 12.3766L28.8379 11.3651L34.0137 6.18836L28.8369 1.01162Z" fill="#12381A"/>
<path d="M57.6738 1.01162L58.6862 0.000127699L64.2008 5.51276C64.2897 5.60109 64.3602 5.70613 64.4083 5.82183C64.4565 5.93753 64.4813 6.06161 64.4813 6.18693C64.4813 6.31224 64.4565 6.43632 64.4083 6.55202C64.3602 6.66772 64.2897 6.77276 64.2008 6.86109L58.6862 12.3766L57.6747 11.3651L62.8505 6.18836L57.6738 1.01162Z" fill="#12381A"/>
</svg>
