<svg width="20" height="20" viewBox="0 0 20 20" fill="none" xmlns="http://www.w3.org/2000/svg">
<g clip-path="url(#clip0_50_117)">
<path d="M8 11.25C7.80109 11.25 7.61032 11.329 7.46967 11.4697C7.32902 11.6103 7.25 11.8011 7.25 12C7.25 12.1989 7.32902 12.3897 7.46967 12.5303C7.61032 12.671 7.80109 12.75 8 12.75H12C12.1989 12.75 12.3897 12.671 12.5303 12.5303C12.671 12.3897 12.75 12.1989 12.75 12C12.75 11.8011 12.671 11.6103 12.5303 11.4697C12.3897 11.329 12.1989 11.25 12 11.25H8Z" fill="black"/>
<path fill-rule="evenodd" clip-rule="evenodd" d="M12.665 0.329994C12.8429 0.241081 13.0487 0.226423 13.2374 0.289241C13.426 0.35206 13.582 0.487214 13.671 0.664994L15.484 4.29099C15.9114 4.31166 16.3014 4.34699 16.654 4.39699C17.71 4.54799 18.584 4.87399 19.205 5.64199C19.826 6.40999 19.962 7.33299 19.889 8.39699C19.819 9.42799 19.539 10.729 19.191 12.354L18.74 14.461C18.505 15.558 18.314 16.447 18.074 17.141C17.824 17.866 17.494 18.461 16.932 18.916C16.37 19.371 15.718 19.568 14.958 19.661C14.228 19.75 13.318 19.75 12.198 19.75H7.80202C6.68002 19.75 5.77102 19.75 5.04102 19.661C4.28102 19.568 3.62902 19.371 3.06702 18.916C2.50502 18.461 2.17502 17.866 1.92502 17.142C1.68502 16.447 1.49502 15.558 1.25902 14.462L0.808024 12.355C0.460024 10.729 0.181024 9.42799 0.110024 8.39699C0.037024 7.33299 0.173024 6.41099 0.794024 5.64199C1.41402 4.87399 2.28802 4.54799 3.34402 4.39699C3.69736 4.34766 4.08736 4.31233 4.51402 4.29099L6.33002 0.664994C6.4198 0.488625 6.57564 0.354886 6.76359 0.292922C6.95154 0.230958 7.15637 0.245792 7.33343 0.334191C7.51049 0.42259 7.64544 0.577388 7.70886 0.764852C7.77229 0.952317 7.75904 1.15725 7.67202 1.33499L6.21202 4.25199C6.57602 4.24999 6.95902 4.24933 7.36102 4.24999H12.639C13.041 4.24999 13.424 4.25066 13.788 4.25199L12.329 1.33499C12.2401 1.15716 12.2255 0.951288 12.2883 0.762646C12.3511 0.574003 12.4862 0.418024 12.664 0.328994M3.73202 5.85799L3.32902 6.66399C3.28412 6.75221 3.25713 6.84843 3.24959 6.94713C3.24206 7.04582 3.25414 7.14503 3.28513 7.23904C3.31612 7.33304 3.36542 7.41998 3.43017 7.49485C3.49492 7.56971 3.57385 7.63102 3.66241 7.67523C3.75097 7.71945 3.8474 7.74569 3.94615 7.75246C4.0449 7.75922 4.14402 7.74637 4.23778 7.71465C4.33154 7.68293 4.41809 7.63296 4.49245 7.56763C4.56681 7.5023 4.6275 7.42289 4.67102 7.33399L5.45802 5.75999C6.02802 5.74999 6.67802 5.74899 7.42202 5.74899H12.578C13.322 5.74899 13.972 5.74899 14.542 5.75899L15.329 7.33399C15.4188 7.51036 15.5746 7.6441 15.7626 7.70607C15.9505 7.76803 16.1554 7.7532 16.3324 7.6648C16.5095 7.5764 16.6444 7.4216 16.7079 7.23414C16.7713 7.04667 16.758 6.84174 16.671 6.66399L16.268 5.85799L16.442 5.88099C17.326 6.00799 17.759 6.23899 18.039 6.58399C18.314 6.92399 18.449 7.38699 18.395 8.24899H1.60502C1.55102 7.38699 1.68602 6.92399 1.96102 6.58399C2.24102 6.23899 2.67402 6.00799 3.55802 5.88099L3.73202 5.85799ZM2.28802 12.1C2.1161 11.3191 1.95575 10.5357 1.80702 9.74999H18.193C18.0437 10.5356 17.883 11.319 17.711 12.1L17.283 14.1C17.035 15.255 16.863 16.054 16.656 16.652C16.456 17.232 16.252 17.538 15.989 17.75C15.727 17.962 15.384 18.098 14.777 18.172C14.148 18.249 13.33 18.25 12.149 18.25H7.85002C6.67002 18.25 5.85202 18.249 5.22302 18.172C4.61502 18.098 4.27302 17.962 4.01102 17.75C3.74802 17.538 3.54302 17.231 3.34402 16.652C3.13702 16.054 2.96402 15.255 2.71702 14.1L2.28802 12.1Z" fill="black"/>
</g>
<defs>
<clipPath id="clip0_50_117">
<rect width="20" height="20" fill="white"/>
</clipPath>
</defs>
</svg>
