<svg width="20" height="20" viewBox="0 0 20 20" fill="none" xmlns="http://www.w3.org/2000/svg">
<path d="M18.9394 18.9394L14.5526 14.5526M14.5526 14.5526C15.303 13.8022 15.8982 12.9114 16.3043 11.9309C16.7104 10.9505 16.9194 9.89969 16.9194 8.83849C16.9194 7.77729 16.7104 6.72648 16.3043 5.74606C15.8982 4.76563 15.303 3.8748 14.5526 3.12442C13.8022 2.37403 12.9114 1.7788 11.9309 1.37269C10.9505 0.966588 9.89969 0.757568 8.83849 0.757568C7.77729 0.757568 6.72648 0.966588 5.74606 1.37269C4.76563 1.7788 3.8748 2.37403 3.12442 3.12442C1.60895 4.63988 0.757568 6.6953 0.757568 8.83849C0.757568 10.9817 1.60895 13.0371 3.12442 14.5526C4.63988 16.068 6.6953 16.9194 8.83849 16.9194C10.9817 16.9194 13.0371 16.068 14.5526 14.5526Z" stroke="black" stroke-width="1.51513" stroke-linecap="round" stroke-linejoin="round"/>
</svg>
