<svg width="1280" height="551" viewBox="0 0 1280 551" fill="none" xmlns="http://www.w3.org/2000/svg">
<g clip-path="url(#clip0_109_171)">
<rect width="1280" height="550.614" fill="#1C5F2A"/>
<path d="M692.139 421.011C687.881 432.474 677.29 444.129 663.709 463.553C655.836 474.875 662.155 479.821 694.966 474.368C709.469 471.946 725.889 481.746 725.889 481.746C701.911 518.646 679.022 517.994 644.534 514.061C614.208 510.49 590.033 499.672 589.856 520.135C589.776 526.823 609.405 530.256 618.93 532.738C675.18 547.156 669.295 563.295 669.295 563.295C669.295 563.295 641.75 595.118 586.186 578.536C559.469 570.486 519.327 549.487 511.939 560.629C502.104 575.141 526.144 584.441 540.07 590.121C610.312 619.142 609.088 632.277 609.088 632.277C609.088 632.277 561.217 672.587 497.826 641.443C466.563 626.007 413.775 594.4 401.719 605.878C388.956 618.085 448.763 649.289 472.842 661.458C506.391 678.377 509.423 692.474 509.423 692.474C509.423 692.474 463.105 728.942 395.655 688.28C345.985 658.228 320.077 629.819 303.936 636.199C289.367 642.123 330.635 676.189 374.617 703.351C409.173 724.73 426.307 738.42 426.307 738.42C426.307 738.42 379.945 775.922 307.789 730.776C235.981 685.882 186.131 621.972 184.216 641.173C182.258 661.407 208.109 683.562 241.596 710.554C258.729 724.245 281.045 739.571 291.532 749.498C316.107 772.678 316.428 789.776 316.428 789.776C316.428 789.776 268.03 795.975 221.008 772.995C179.643 752.706 152.543 725.205 116.763 683.587C97.0669 660.757 74.4786 631.919 61.5894 632.851C53.2531 633.362 64.4088 660.639 82.1568 681.522C96.8732 698.783 128.683 726.864 151.112 746.178C165.327 758.281 171.428 770.347 171.428 770.347C171.428 770.347 161.458 770.914 146.085 768.444C117.552 763.867 75.266 747.524 45.9256 715.556C28.2288 696.307 15.3756 681.111 8.12726 656.495C0.668784 631.194 -0.166889 612.125 -21.2934 597.841C-42.3355 583.44 -60.3138 583.337 -88.351 543.972C-100.486 526.812 -115.869 479.776 -119.945 431.548C-124.134 381.284 -97.6383 356.509 -97.6383 356.509C-97.6383 356.509 -63.5265 368.511 -46.7414 404.849C-23.1308 455.91 -21.8951 554.088 0.0656567 566.493C26.3028 581.295 10.5515 532.572 7.12162 504.162C-0.753722 440.214 7.33022 394.252 23.3469 362.219C37.8855 333.194 57.1965 328.052 57.1965 328.052C57.1965 328.052 89.6565 359.624 89.5625 392.397C89.3282 439.98 91.9505 486.798 91.8035 519.887C91.6178 560.582 96.4074 577.376 103.099 588.628C116.188 610.565 135.416 616.013 130.838 564.579C125.32 503.232 127.17 441.733 140.891 407.5C154 374.597 184.806 360.942 184.806 360.942C184.806 360.942 209.874 397.085 210.858 426.913C212.741 486.685 206.633 515.798 205.314 551.232C204.234 579.028 207.825 604.537 224.912 610.738C243.295 617.349 240.879 587.545 242.372 546.025C243.522 510.824 250.269 463.535 263.437 434.935C281.145 396.675 303.042 387.731 303.042 387.731C303.042 387.731 338.628 423.527 337.222 450.554C336.136 473.73 326.411 527.554 326.343 555.907C326.236 579.44 321.817 606.23 341.395 608.028C351.701 608.947 356.452 587.547 359.258 551.773C361.402 524.218 366.398 489.326 375.39 463.551C384.657 436.91 411.599 419.56 411.599 419.56C411.599 419.56 445.712 442.036 440.494 477.477C436.198 507.02 432.991 532.383 431.646 551.288C428.847 591.682 453.602 580.021 458.355 546.195C463.394 510.27 466.357 485.972 477.957 455.878C485.182 437.162 508.107 421.687 508.107 421.687C508.107 421.687 529.856 435.358 530.698 459.048C532.187 500.604 517.595 519.47 537.694 517.386C552.122 515.798 552.256 473.468 556.056 445.34C559.939 417.095 581.857 397.16 581.857 397.16C581.857 397.16 614.042 406.698 608.871 437.202C599.651 492.28 620.43 483.412 628.323 461.099C630.975 453.794 642.082 421.212 644.818 413.791C658.924 374.157 687.009 373.26 687.009 373.26C687.009 373.26 701.922 394.391 692.139 421.011Z" fill="#A1D65C" fill-opacity="0.08"/>
</g>
<rect x="0.5" y="0.5" width="1279" height="549.614" stroke="#FEC432" stroke-opacity="0.23"/>
<defs>
<clipPath id="clip0_109_171">
<rect width="1280" height="550.614" fill="white"/>
</clipPath>
</defs>
</svg>
